<svg xmlns="http://www.w3.org/2000/svg" width="2400" height="1350" viewBox="0 0 2400 1350" role="img" aria-label="Sleek digital business card with NFT seal">
  <defs>
    <linearGradient id="g0" x1="0" y1="0" x2="1" y2="1">
      <stop offset="0" stop-color="#05070c"/>
      <stop offset="1" stop-color="#0b1020"/>
    </linearGradient>
    <radialGradient id="goldGlow" cx="30%" cy="24%" r="70%">
      <stop offset="0" stop-color="rgba(212,175,55,.26)"/>
      <stop offset="0.55" stop-color="rgba(212,175,55,.08)"/>
      <stop offset="1" stop-color="rgba(212,175,55,0)"/>
    </radialGradient>
    <radialGradient id="blueGlow" cx="80%" cy="18%" r="70%">
      <stop offset="0" stop-color="rgba(255,255,255,.08)"/>
      <stop offset="1" stop-color="rgba(120,180,255,0)"/>
    </radialGradient>
    <filter id="blur" x="-20%" y="-20%" width="140%" height="140%">
      <feGaussianBlur stdDeviation="8"/>
    </filter>
  </defs>

  <rect width="2400" height="1350" fill="url(#g0)"/>
  <rect width="2400" height="1350" fill="url(#goldGlow)"/>
  <rect width="2400" height="1350" fill="url(#blueGlow)"/>

  <g opacity="0.8"><path d="M 1500.2 1052.8 Q 1266.2 628.9 426.2 515.4" stroke="rgba(243,210,122,0.115)" stroke-width="1.44" fill="none"/><path d="M 49.3 1264.6 Q -286.0 1070.8 86.4 1295.2" stroke="rgba(243,210,122,0.099)" stroke-width="1.55" fill="none"/><path d="M -163.8 541.5 Q 492.8 325.9 1709.3 201.5" stroke="rgba(243,210,122,0.079)" stroke-width="1.99" fill="none"/><path d="M 350.1 534.1 Q 1015.8 454.3 1878.9 -39.2" stroke="rgba(243,210,122,0.131)" stroke-width="1.30" fill="none"/><path d="M 232.9 453.7 Q 530.8 495.0 1377.6 456.4" stroke="rgba(243,210,122,0.090)" stroke-width="1.20" fill="none"/><path d="M 427.9 647.3 Q 1407.4 843.0 2410.2 1390.8" stroke="rgba(243,210,122,0.122)" stroke-width="1.96" fill="none"/><path d="M -175.1 1146.4 Q 950.2 1154.9 1340.2 880.2" stroke="rgba(243,210,122,0.135)" stroke-width="1.36" fill="none"/><path d="M 24.7 305.1 Q 797.3 927.0 1084.0 1440.1" stroke="rgba(243,210,122,0.101)" stroke-width="1.30" fill="none"/><path d="M 1230.4 414.7 Q 1673.6 59.9 1419.2 -56.2" stroke="rgba(243,210,122,0.116)" stroke-width="1.16" fill="none"/><path d="M 484.7 750.0 Q 1141.9 276.0 1244.1 108.1" stroke="rgba(243,210,122,0.075)" stroke-width="2.20" fill="none"/><path d="M 362.7 1346.3 Q 1210.5 1509.2 2404.9 1322.4" stroke="rgba(243,210,122,0.127)" stroke-width="2.09" fill="none"/><path d="M 1322.5 -48.6 Q 1445.6 80.0 1821.7 121.1" stroke="rgba(243,210,122,0.116)" stroke-width="1.75" fill="none"/><path d="M 1175.1 856.7 Q 1579.8 666.7 2529.3 48.0" stroke="rgba(243,210,122,0.078)" stroke-width="2.06" fill="none"/><path d="M 1778.9 1001.9 Q 1632.3 973.6 1825.3 842.3" stroke="rgba(243,210,122,0.072)" stroke-width="1.31" fill="none"/></g>
  <g><circle cx="956.0" cy="959.9" r="4.2" fill="rgba(212,175,55,0.117)"/><circle cx="920.4" cy="1246.2" r="5.3" fill="rgba(212,175,55,0.055)"/><circle cx="578.2" cy="890.1" r="4.3" fill="rgba(212,175,55,0.090)"/><circle cx="99.6" cy="336.8" r="2.6" fill="rgba(212,175,55,0.073)"/><circle cx="1489.5" cy="723.4" r="4.6" fill="rgba(212,175,55,0.109)"/><circle cx="2084.5" cy="1337.0" r="3.9" fill="rgba(212,175,55,0.120)"/><circle cx="1263.2" cy="980.9" r="3.8" fill="rgba(212,175,55,0.057)"/><circle cx="928.5" cy="1286.6" r="4.6" fill="rgba(212,175,55,0.088)"/><circle cx="23.1" cy="1269.7" r="5.7" fill="rgba(212,175,55,0.121)"/><circle cx="1514.5" cy="1204.3" r="5.9" fill="rgba(212,175,55,0.112)"/><circle cx="840.0" cy="526.5" r="2.6" fill="rgba(212,175,55,0.109)"/><circle cx="1113.6" cy="164.2" r="4.8" fill="rgba(212,175,55,0.059)"/><circle cx="341.0" cy="1188.3" r="4.8" fill="rgba(212,175,55,0.112)"/><circle cx="1398.2" cy="670.4" r="5.1" fill="rgba(212,175,55,0.106)"/><circle cx="1142.7" cy="585.8" r="2.5" fill="rgba(212,175,55,0.068)"/><circle cx="695.5" cy="1046.4" r="2.6" fill="rgba(212,175,55,0.088)"/><circle cx="791.9" cy="833.1" r="2.3" fill="rgba(212,175,55,0.086)"/><circle cx="1499.4" cy="1127.7" r="2.8" fill="rgba(212,175,55,0.085)"/><circle cx="5.8" cy="800.8" r="4.3" fill="rgba(212,175,55,0.051)"/><circle cx="221.2" cy="55.8" r="2.5" fill="rgba(212,175,55,0.103)"/><circle cx="1859.8" cy="23.1" r="3.7" fill="rgba(212,175,55,0.066)"/><circle cx="2127.9" cy="319.6" r="2.6" fill="rgba(212,175,55,0.080)"/><circle cx="1021.9" cy="596.0" r="3.8" fill="rgba(212,175,55,0.063)"/><circle cx="300.2" cy="404.0" r="4.2" fill="rgba(212,175,55,0.061)"/><circle cx="15.5" cy="571.9" r="4.1" fill="rgba(212,175,55,0.093)"/><circle cx="1234.6" cy="362.7" r="3.3" fill="rgba(212,175,55,0.139)"/><circle cx="1361.7" cy="341.7" r="4.3" fill="rgba(212,175,55,0.089)"/><circle cx="1407.3" cy="562.2" r="2.6" fill="rgba(212,175,55,0.133)"/><circle cx="1313.3" cy="28.2" r="5.0" fill="rgba(212,175,55,0.078)"/><circle cx="811.5" cy="738.6" r="3.2" fill="rgba(212,175,55,0.072)"/><circle cx="1848.0" cy="947.4" r="5.8" fill="rgba(212,175,55,0.122)"/><circle cx="1046.2" cy="1301.5" r="3.8" fill="rgba(212,175,55,0.137)"/><circle cx="2251.4" cy="1342.3" r="2.7" fill="rgba(212,175,55,0.059)"/><circle cx="1186.5" cy="614.8" r="4.4" fill="rgba(212,175,55,0.119)"/><circle cx="2326.0" cy="1179.9" r="3.0" fill="rgba(212,175,55,0.057)"/><circle cx="179.6" cy="343.6" r="4.3" fill="rgba(212,175,55,0.060)"/><circle cx="7.6" cy="1062.4" r="4.3" fill="rgba(212,175,55,0.085)"/><circle cx="566.3" cy="526.8" r="5.1" fill="rgba(212,175,55,0.139)"/></g>

  <g filter="url(#blur)" opacity="0.9">
    <circle cx="1752.0" cy="621.0" r="210" fill="rgba(255,255,255,.04)"/>
  </g>

  <g><circle cx="1752.0" cy="621.0" r="160" fill="none" stroke="rgba(212,175,55,0.180)" stroke-width="1.2"/><circle cx="1752.0" cy="621.0" r="215" fill="none" stroke="rgba(212,175,55,0.150)" stroke-width="1.2"/><circle cx="1752.0" cy="621.0" r="270" fill="none" stroke="rgba(212,175,55,0.120)" stroke-width="1.2"/><circle cx="1752.0" cy="621.0" r="325" fill="none" stroke="rgba(212,175,55,0.090)" stroke-width="1.2"/></g>

  <g>
    <rect x="1562.0" y="555.0" width="380" height="132" rx="26" fill="rgba(255,255,255,.05)" stroke="rgba(255,255,255,.10)"/>
    <text x="1752.0" y="613.0" text-anchor="middle" font-family="ui-sans-serif,system-ui" font-size="50" fill="rgba(245,247,255,.92)" letter-spacing="2">W3</text>
    <text x="1752.0" y="655.0" text-anchor="middle" font-family="ui-sans-serif,system-ui" font-size="22" fill="rgba(245,247,255,.60)" letter-spacing="1">w3.contact</text>
  </g>

  <g opacity="0.9">
    <circle cx="432.0" cy="1053.0" r="280" fill="rgba(212,175,55,.06)"/>
    <circle cx="432.0" cy="1053.0" r="279" fill="none" stroke="rgba(255,255,255,.06)"/>
  </g>
</svg>